<?xml version="1.0" encoding="utf-8"?>
<!-- Generator: Adobe Illustrator 20.0.0, SVG Export Plug-In . SVG Version: 6.00 Build 0)  -->
<svg version="1.1" id="Layer_1" xmlns="http://www.w3.org/2000/svg" xmlns:xlink="http://www.w3.org/1999/xlink" x="0px" y="0px"
	 viewBox="0 0 460 210" style="enable-background:new 0 0 460 210;" xml:space="preserve">
<style type="text/css">
	.st0{fill:#231F20;}
</style>
<path class="st0" d="M302.4,123.7c1.9-2.1,4.5-2.8,7-3c6.9-0.5,12.9-4,19.4-6c5-1.5,9.8-3.7,15.1-4c1.1-0.1,1.9-0.7,2-1.9
	c0.9-6.7,2.6-13.2,2.5-20.1c-0.1-6.8-2.7-12.5-5.9-18c-0.8-1.4-2-2-3.5-1.4c-0.4,0.2-0.7,0.3-1.1,0.4c-4.7,0.8-4.7,0.8-3.1,5.8
	c0.9,2.8,1.8,5.6,2.6,8.4c0.6,2.1,1,4.3,3.9,3.9c1.5-0.2,1.9,1.6,2.2,2.9c0.3,1.7-0.4,2.9-1.7,3.7c-1.6,0.9-3.2,1.2-4.7,0
	c-1.2-1-2.1-2.1-3-3.5c-2.4-4-4.8-8-7.5-11.7c-2.2-3.1-4.6-5.9-8.3-7.2c-2.7-1-5.2-2.8-6.9-5.6c-3.1-5-8.4-7.5-12.1-11.9
	c-2-2.3-2.7-6-5.1-7.1c-2.3-1-5.2,0-8-0.9c-2.5-0.9-5.1-1.4-8-0.5c-3.2,1-5-1.5-6.1-4.5c0-0.2,0-0.4,0-0.6
	c5.1-3.9,10.2-7.8,15.4-11.6c1.4-1,2.9-2,4.4-2.4c2.1-0.5,1.6-1.8,3.6-3.2c4.1-2.8,8.9-4.6,14.6-5c4.2-0.3,5,0.6,3.2,3.2
	c-2.3,3.2-5.4,5.9-10.2,7.4c-4.2,1.4-3.9,2.8-1.3,4.7c4.3,3,8.7,4.2,13.5,1.1c2.4-1.6,3.2-4.2,4.6-6.5c4.9-8.3,10.3-16,18.3-21
	c2.7-1.7,11.7-5.2,18.8-3.3c4.4,1.2,17.3,8.5,24.9,15.9c9,8.6,16.1,19,24.2,28.5c7,8.2,15.1,15,25.2,18.3c9.4,3.1,17-0.4,24-6.9
	c1-0.9,1.7-2.4,3.2-2.6c-3.4,13.9-14.4,24.8-29.1,20.2c-10.1-3.1-18.7-9.1-27.5-14.8c-3.5-2.3-7.1-4.5-10.6-6.8
	c-1.5-1-2.7-0.9-3.7,0.8c-4.7,8.3-11.3,14.2-19.7,17.7c-2.1,0.9-2.8,3.4-3.7,5.5c-4.7,10.6-7.5,21.7-8.9,33.3
	c-0.8,6.4-1.8,6.8-7.5,8.2c-7.7,1.8-15.5,2.2-23.2,3c-3.7,0.4-7.1,2.3-10.8,3c-3.5,0-7.1,0-10.6,0
	C300.5,126.7,300.8,125.3,302.4,123.7z M54.3,22.8c-2.7-2.7-5.8-4.8-9.1-6.1c-3.3-1.3-7.1-2-11.3-2c-3.7,0-7,0.6-10,1.7
	c-2.9,1.2-5.4,2.7-7.3,4.6c-2,1.9-3.5,4.1-4.5,6.6c-1,2.5-1.5,5.1-1.5,7.8c0,3.5,0.6,6.3,1.7,8.6c1.2,2.3,2.7,4.2,4.6,5.8
	c1.9,1.5,4.1,2.8,6.5,3.8c2.4,1,4.9,1.9,7.4,2.7c2.5,0.8,5,1.6,7.4,2.4c2.4,0.8,4.6,1.9,6.5,3.1s3.4,2.8,4.6,4.6
	c1.2,1.8,1.7,4.2,1.7,7c0,2.6-0.5,5.1-1.4,7.4c-0.9,2.3-2.2,4.3-4,6c-1.7,1.7-3.9,3-6.4,4s-5.4,1.5-8.6,1.5c-2.3,0-4.4-0.2-6.2-0.7
	c-1.8-0.5-3.4-1-4.8-1.7c-1.4-0.7-2.6-1.4-3.7-2.2c-1.1-0.8-2-1.5-2.7-2.2C12.6,85,12,84.4,11.4,84c-0.5-0.5-1-0.7-1.3-0.7
	c-0.6,0-1.1,0.3-1.6,0.9l-1.6,2.5c2.9,3.3,6.2,5.8,10.1,7.7c3.8,1.9,8.4,2.8,13.7,2.8c4.1,0,7.7-0.6,10.9-1.9c3.2-1.3,5.9-3,8.1-5.2
	c2.2-2.2,3.9-4.8,5-7.8c1.2-3,1.7-6.2,1.7-9.5c0-3.3-0.6-6.1-1.7-8.3c-1.2-2.2-2.7-4.1-4.6-5.6c-1.9-1.5-4.1-2.8-6.5-3.8
	c-2.4-1-4.9-1.9-7.4-2.8c-2.5-0.8-5-1.7-7.4-2.5c-2.4-0.9-4.6-1.9-6.5-3.2c-1.9-1.3-3.4-2.8-4.6-4.6c-1.2-1.8-1.7-4-1.7-6.8
	c0-2.1,0.4-4.1,1.2-6c0.8-1.9,1.9-3.6,3.4-5s3.4-2.6,5.6-3.4c2.2-0.8,4.8-1.3,7.7-1.3s5.4,0.4,7.4,1.1c2,0.7,3.7,1.5,5,2.4
	c1.3,0.9,2.4,1.6,3.2,2.3c0.8,0.7,1.4,1.1,1.9,1.1c0.6,0,1.1-0.3,1.5-1L54.3,22.8z M76.2,96.3V53.8c2.5-3.3,5.4-6,8.5-7.9
	C87.9,44,91.4,43,95.1,43c5,0,8.7,1.5,11.2,4.5c2.4,3,3.6,7.2,3.6,12.5v36.2h5.4V60c0-3.3-0.4-6.3-1.2-8.9c-0.8-2.6-2-4.9-3.5-6.7
	c-1.6-1.9-3.5-3.3-5.9-4.3c-2.4-1-5.1-1.5-8.2-1.5c-4.2,0-7.9,1-11.3,2.9c-3.4,1.9-6.4,4.5-9,7.7V13.4h-5.4v82.9H76.2z M143.1,40.7
	c-3.2,1.4-5.9,3.4-8.1,5.9c-2.2,2.5-3.9,5.6-5.1,9.2c-1.2,3.6-1.7,7.6-1.7,12s0.6,8.5,1.7,12c1.2,3.6,2.8,6.6,5.1,9.2
	c2.2,2.5,4.9,4.5,8.1,5.9c3.2,1.4,6.8,2.1,10.9,2.1c4.1,0,7.7-0.7,10.9-2.1c3.2-1.4,5.9-3.3,8.1-5.9c2.2-2.5,3.9-5.6,5-9.2
	c1.2-3.6,1.7-7.6,1.7-12s-0.6-8.5-1.7-12c-1.2-3.6-2.8-6.7-5-9.2c-2.2-2.5-4.9-4.5-8.1-5.9c-3.2-1.4-6.8-2.1-10.9-2.1
	C149.9,38.7,146.3,39.4,143.1,40.7z M145.1,91c-2.5-1.2-4.6-2.8-6.3-5c-1.7-2.2-3-4.8-3.8-7.8c-0.9-3.1-1.3-6.5-1.3-10.3
	c0-3.8,0.4-7.2,1.3-10.3s2.1-5.7,3.8-7.9c1.7-2.2,3.8-3.9,6.3-5c2.5-1.2,5.5-1.8,8.9-1.8c3.4,0,6.3,0.6,8.9,1.8
	c2.5,1.2,4.6,2.9,6.3,5c1.7,2.2,3,4.8,3.8,7.9c0.8,3.1,1.3,6.5,1.3,10.3c0,3.8-0.4,7.2-1.3,10.3c-0.8,3.1-2.1,5.7-3.8,7.8
	c-1.7,2.2-3.8,3.8-6.3,5c-2.5,1.2-5.5,1.7-8.9,1.7C150.6,92.7,147.6,92.2,145.1,91z M199.4,96.3V59.4c1.7-5,3.9-8.8,6.7-11.5
	c2.8-2.7,6.3-4,10.6-4c1.2,0,2.2,0.1,3.1,0.2c0.9,0.2,1.7,0.3,2.3,0.5c0.6,0.2,1.1,0.4,1.6,0.5c0.4,0.2,0.7,0.2,1,0.2
	c0.6,0,1-0.3,1.1-0.9l0.7-3.8c-1.3-0.7-2.7-1.2-4.1-1.6c-1.4-0.4-3-0.5-4.7-0.5c-4.4,0-8.2,1.3-11.2,3.9c-3,2.6-5.5,6.2-7.3,10.8
	l-0.5-12c0-0.6-0.2-1.1-0.5-1.4c-0.3-0.3-0.8-0.4-1.4-0.4H194v56.7H199.4z M261.6,95.7c2.2-1,4.1-2.3,5.5-3.8l-1.5-2.4
	c-0.3-0.4-0.6-0.6-0.9-0.6c-0.3,0-0.6,0.2-1.1,0.6c-0.5,0.4-1,0.8-1.8,1.3c-0.7,0.5-1.6,0.9-2.6,1.3c-1,0.4-2.2,0.6-3.5,0.6
	c-1.1,0-2.1-0.2-3.1-0.5s-1.8-0.9-2.5-1.6c-0.7-0.7-1.3-1.6-1.7-2.8c-0.4-1.1-0.6-2.5-0.6-4V45.4h17.8v-4H248V19.7h-2.5
	c-0.4,0-0.7,0.1-1,0.4c-0.2,0.3-0.4,0.6-0.4,0.9l-1.4,20.3L233,42v2.1c0,0.4,0.1,0.7,0.4,1c0.3,0.2,0.6,0.3,1,0.3h8.1v38.7
	c0,4.4,1.1,7.7,3.2,9.9c2.1,2.1,5.1,3.2,8.9,3.2C257.1,97.2,259.4,96.7,261.6,95.7z M22.2,188.6H26c0.7,0,1.1-0.4,1.4-1.2l15.7-46
	c0.2-0.6,0.4-1.1,0.5-1.7c0.1-0.6,0.3-1.1,0.4-1.7c0.1,0.6,0.2,1.1,0.4,1.7c0.2,0.6,0.3,1.1,0.5,1.7l15.6,46
	c0.3,0.8,0.7,1.2,1.3,1.2h4l19-56.7h-4c-1,0-1.6,0.5-1.9,1.4L64.4,178c-0.3,0.9-0.5,1.7-0.7,2.5c-0.2,0.8-0.3,1.6-0.5,2.4
	c-0.3-1.6-0.8-3.2-1.4-5l-15-45.1c-0.3-0.8-0.8-1.3-1.7-1.3H43c-0.8,0-1.3,0.4-1.6,1.3L26.2,178c-0.3,0.9-0.6,1.7-0.8,2.5
	s-0.4,1.6-0.6,2.4c-0.2-0.8-0.3-1.6-0.5-2.4c-0.2-0.8-0.4-1.6-0.6-2.5L9.4,133.2c-0.1-0.3-0.3-0.7-0.7-0.9s-0.8-0.4-1.3-0.4H3.2
	L22.2,188.6z M133.5,188.6v-36.9c0-3.2-0.4-6-1.1-8.6c-0.8-2.6-1.9-4.7-3.4-6.6c-1.5-1.8-3.4-3.2-5.7-4.2c-2.3-1-4.9-1.5-8-1.5
	c-4.1,0-7.8,0.8-11.1,2.3c-3.3,1.5-6.4,3.8-9.3,6.7l1,1.7c0.4,0.7,0.9,1,1.7,1c0.6,0,1.3-0.4,2.1-1.1c0.8-0.8,1.9-1.6,3.2-2.5
	c1.3-0.9,3-1.7,4.9-2.5c1.9-0.8,4.2-1.1,7-1.1c4.4,0,7.8,1.4,10.1,4.2c2.3,2.8,3.4,6.9,3.4,12.1v5.9c-6.4,0.2-11.9,0.7-16.5,1.6
	c-4.6,0.9-8.3,2.1-11.2,3.6c-2.9,1.5-5,3.3-6.4,5.4c-1.4,2.1-2.1,4.3-2.1,6.7c0,2.6,0.4,4.8,1.3,6.6c0.9,1.8,2,3.4,3.4,4.5
	c1.4,1.2,3,2.1,4.8,2.6c1.8,0.6,3.7,0.9,5.6,0.9c2.3,0,4.4-0.2,6.4-0.7c1.9-0.4,3.7-1.1,5.4-1.9c1.7-0.8,3.3-1.9,4.8-3.1
	c1.5-1.2,3.1-2.6,4.6-4.1l0.8,7.2c0.3,1.1,1,1.6,2.1,1.6H133.5z M104.3,184.9c-1.4-0.4-2.6-1.1-3.6-2s-1.9-2-2.5-3.4
	c-0.6-1.4-0.9-3-0.9-4.9c0-2,0.6-3.8,1.8-5.4c1.2-1.6,3.1-2.9,5.6-4.1c2.5-1.1,5.7-2,9.6-2.7c3.9-0.7,8.5-1.1,13.9-1.2V176
	c-1.3,1.4-2.7,2.6-4,3.8c-1.4,1.2-2.8,2.2-4.4,3c-1.6,0.9-3.3,1.5-5.1,2c-1.8,0.5-3.9,0.7-6.1,0.7
	C107.1,185.5,105.7,185.3,104.3,184.9z M152.2,105.7v82.9h5.4v-82.9H152.2z M179.3,105.7v82.9h5.4v-82.9H179.3z M243.1,188.6v-36.9
	c0-3.2-0.4-6-1.1-8.6c-0.8-2.6-1.9-4.7-3.4-6.6c-1.5-1.8-3.4-3.2-5.7-4.2c-2.3-1-4.9-1.5-8-1.5c-4.1,0-7.8,0.8-11.1,2.3
	c-3.3,1.5-6.4,3.8-9.3,6.7l1,1.7c0.4,0.7,0.9,1,1.7,1c0.6,0,1.3-0.4,2.1-1.1c0.8-0.8,1.9-1.6,3.2-2.5c1.3-0.9,3-1.7,4.9-2.5
	c1.9-0.8,4.2-1.1,7-1.1c4.4,0,7.8,1.4,10.1,4.2c2.3,2.8,3.4,6.9,3.4,12.1v5.9c-6.4,0.2-11.9,0.7-16.5,1.6c-4.6,0.9-8.3,2.1-11.2,3.6
	c-2.9,1.5-5,3.3-6.4,5.4c-1.4,2.1-2.1,4.3-2.1,6.7c0,2.6,0.4,4.8,1.3,6.6c0.9,1.8,2,3.4,3.4,4.5c1.4,1.2,3,2.1,4.8,2.6
	c1.8,0.6,3.7,0.9,5.6,0.9c2.3,0,4.4-0.2,6.4-0.7c1.9-0.4,3.7-1.1,5.4-1.9c1.7-0.8,3.3-1.9,4.8-3.1c1.5-1.2,3.1-2.6,4.6-4.1l0.8,7.2
	c0.3,1.1,1,1.6,2.1,1.6H243.1z M213.9,184.9c-1.4-0.4-2.6-1.1-3.6-2s-1.9-2-2.5-3.4c-0.6-1.4-0.9-3-0.9-4.9c0-2,0.6-3.8,1.8-5.4
	c1.2-1.6,3.1-2.9,5.6-4.1c2.5-1.1,5.7-2,9.6-2.7c3.9-0.7,8.5-1.1,13.9-1.2V176c-1.3,1.4-2.7,2.6-4,3.8c-1.4,1.2-2.8,2.2-4.4,3
	c-1.6,0.9-3.3,1.5-5.1,2c-1.8,0.5-3.9,0.7-6.1,0.7C216.6,185.5,215.2,185.3,213.9,184.9z M264,188.6c0.9,0,1.4-0.5,1.5-1.4l0.3-7
	c2.1,3,4.5,5.3,7.4,6.8c2.9,1.5,6.3,2.3,10.2,2.3c4,0,7.5-0.8,10.6-2.3c3.1-1.5,5.6-3.6,7.8-6.2c2.1-2.6,3.7-5.8,4.8-9.3
	c1.1-3.6,1.6-7.5,1.6-11.6c0-9.6-1.9-16.9-5.8-21.7c-3.9-4.8-9.3-7.2-16.3-7.2c-4.1,0-7.9,1-11.2,2.9c-3.3,1.9-6.2,4.6-8.7,7.9
	l-0.1-36.1h-5.4v82.9H264z M297.9,141.2c3.1,4,4.7,10.2,4.7,18.6c0,3.7-0.4,7.1-1.3,10.2c-0.9,3.1-2.1,5.8-3.8,8s-3.8,3.9-6.3,5.2
	c-2.5,1.2-5.4,1.8-8.8,1.8c-3.4,0-6.4-0.7-9.1-2c-2.6-1.3-5-3.6-7.2-6.9v-29.9c2.4-3.5,5.1-6.2,8.2-8.1c3-1.9,6.4-2.9,10.2-2.9
	C290.3,135.3,294.8,137.3,297.9,141.2z M366.3,131.9h-4.2c-0.4,0-0.8,0.1-1.1,0.4s-0.6,0.6-0.8,1l-18.9,44.1
	c-0.2,0.6-0.4,1.1-0.7,1.7c-0.2,0.6-0.4,1.2-0.6,1.8c-0.2-0.6-0.3-1.2-0.5-1.8s-0.4-1.2-0.6-1.7l-19.1-44.1
	c-0.2-0.3-0.4-0.7-0.7-0.9c-0.3-0.3-0.8-0.4-1.3-0.4h-4.5l24,54.6l-10,22.2h3.9c0.7,0,1.2-0.2,1.6-0.5c0.4-0.3,0.7-0.8,0.9-1.3
	L366.3,131.9z"/>
</svg>
